<svg xmlns="http://www.w3.org/2000/svg" viewBox="0 0 400 350"><g fill="#FFF"><path d="M164.9 340.7c1.7 2.9 4 3.9 6.8 1.4 3.7-3.3 7.3-6.8 10.8-10.4 3.9-4 7.5-8.4 11.4-12.4 2.7-2.7 6.1-3.4 9.3-.7 2.3 1.9 4.7 4 6.7 6.3 4.7 5.6 9.1 11.5 14 16.9 3.2 3.5 5.7 3.1 7.9.3-8.1-8.3-16.1-16.6-24.1-24.8l.9-1.5c3.2 1 6.6 1.7 9.6 3 6 2.6 11.9 5.6 17.9 8.2 11 4.7 22.4 3.3 33.7 2l9-1c-8.1-7.5-16.6-12.7-26.2-15.7-14.2-4.4-28.6-4.2-43.1-1.3-3.9.8-7.9 1.8-11.7 1.4-7.6-.7-15.2-2.4-22.8-3.5-15.3-2.2-29.7.5-43.2 7.9-4.3 2.3-8.1 5.3-12.2 8 8 2.3 15.2 4.2 23.2 4 12.6-.3 24-3.5 34.9-9.5 3.9-2.2 8-3.9 13.1-2.9-8.8 8.3-17.2 16.2-25.9 24.3zM78.5 306c18.2 12.2 58.9 7.8 75.5-5.7-17.4-9.5-58.6-8-75.5 5.7zm193.2-40.6c-27.9 2.3-54 21-62.1 40.2 18 .9 52.7-16.1 62.1-40.2zm-149.3 17.8c2.3-19.9-22-60.2-38.2-63.7-.9 23.3 17.5 53 38.2 63.7zm154.3 2c19.1-7.6 40.5-38.4 39.9-62.8-19.9 9.5-38.8 37.9-39.9 62.8zm8.5 3.6c23.3 9.2 64.6 4.4 75.7-8.7-17.2-9.1-57.8-6.4-75.7 8.7zm35 21c-13.4-8.9-27.9-13.9-43.5-13.6-10.8.2-21.8 2.3-32.4 5.7 24 13.5 48.8 19.2 75.9 7.9zm-131.4-4.6c-8.4-21-35.1-39.3-60.2-41.2 5.8 19.7 40 41.1 60.2 41.2zM38.7 274.8c18.5 15.4 53.1 20.3 75 11.1-19.1-15.2-48.1-18.4-75-11.1zM332.5 72.6c1.7-16.3-21.4-56.4-35.5-61.5-4.3 20.2 10.9 51.5 35.5 61.5zM110 7.9c-16.8 8.6-36.2 41.3-37.5 60.4 25-8.8 39.7-37.6 37.5-60.4zm196.2 262.2c21.2 1 51.9-17.4 59.1-37.4-21.7.2-51.4 17.5-59.1 37.4zm-213.4-3.7c-4.1-17.3-39.4-40.9-57-38.1 5.9 17.5 33.2 38.6 57 38.1zm254.8-152.6c-3-16.9-23.2-44-48.3-49.6.8 17.9 29.7 48 48.3 49.6zM106.4 60.6c-25.2 7.8-41.5 24-50.7 48.5 16.5-1.2 45.2-23.1 50.7-48.5zm289.3 40c-16.8 5-37.8 41.9-32.9 57.8 20.9-10.2 36-38.5 32.9-57.8zM33.2 56.4c-9.5 23.5-1.7 51.6 12.3 66.3 8.9-22.5 3.8-47.5-12.3-66.3zm308.9 114c-17.1 16.8-21.5 50.1-13.4 65.8 19.6-22.5 20.2-49.4 13.4-65.8zm-.2 58.4c19.4 0 46.5-17 54.3-39.5-13.3-.9-48.3 17.4-54.3 39.5zm30.5-166.9c-18 17.1-22.5 52.3-14.5 65.2 15.9-18 22.9-43.3 14.5-65.2zM62.2 18.7C47.1 36.4 49.5 75.1 58.3 86 72.4 65.4 73 36.4 62.2 18.7zM354.6 200c21.2-7 42-37.2 40.3-53.7-11.9 1.9-39.3 27.6-40.3 53.7zM40.3 153c3.1-18.9-17.9-56.4-33-58.5.6 25.4 11.1 44.9 33 58.5zM8.1 139.9c2.8 28.2 18.2 45.4 38.6 55.1 1.3-18.8-19.1-48.2-38.6-55.1zm52.2 26.2c-8.9 17.8-3.6 50.5 11.9 66.4 7.8-16.7 4.9-46.7-11.9-66.4zM344.2 23.2C332.5 38.8 334 79 346.7 89.8c10.2-22.6 11.7-44.8-2.5-66.6zM5 183.5c10.9 23.3 29 36.5 54 41.3-7.2-21-31.9-40-54-41.3zm69-75.1c-20.3 10.5-31.5 43.8-25.9 58.5 19.3-12.1 29.5-41.1 25.9-58.5zm255.8 3.6c-4.5 28.9 10.2 49.6 24.9 59.2 3.7-22.7-6.6-47-24.9-59.2z"/><path d="M164.9 340.7c8.7-8.2 17.1-16.1 25.9-24.3-5.2-1-9.3.7-13.1 2.9-10.9 6-22.3 9.2-34.9 9.5-7.9.2-15.1-1.7-23.2-4 4.1-2.7 7.9-5.7 12.2-8 13.5-7.3 28-10.1 43.2-7.9 7.6 1.1 15.1 2.8 22.8 3.5 3.8.4 7.9-.6 11.7-1.4 14.5-3 28.9-3.1 43.1 1.3 9.7 3 18.1 8.3 26.2 15.7l-9 1c-11.4 1.2-22.8 2.7-33.7-2-6-2.6-11.8-5.7-17.9-8.2-3.1-1.3-6.4-2-9.6-3l-.9 1.5c8 8.3 16 16.5 24.1 24.8-2.1 2.8-4.7 3.2-7.9-.3-4.9-5.4-9.2-11.4-14-16.9-2-2.3-4.3-4.3-6.7-6.3-3.2-2.7-6.6-2-9.3.7-4 4-7.5 8.4-11.4 12.4-3.5 3.6-7.1 7-10.8 10.4-2.8 2.6-5.1 1.5-6.8-1.4zM78.5 306c17-13.7 58.1-15.1 75.5-5.7-16.7 13.5-57.3 17.9-75.5 5.7zm193.2-40.6c-9.3 24.1-44.1 41.1-62.1 40.2 8.1-19.2 34.2-37.9 62.1-40.2zm-149.3 17.8c-20.7-10.7-39.1-40.4-38.2-63.7 16.2 3.5 40.5 43.8 38.2 63.7zm154.3 2c1.1-24.9 20.1-53.3 39.9-62.8.6 24.4-20.9 55.2-39.9 62.8zm8.5 3.6c18-15.2 58.5-17.9 75.7-8.7-11.1 13.1-52.5 18-75.7 8.7zm35 21c-27 11.3-51.8 5.6-75.9-8 10.6-3.4 21.6-5.5 32.4-5.7 15.5-.2 30.1 4.8 43.5 13.7zm-131.4-4.6c-20.2-.1-54.3-21.5-60.2-41.2 25 1.9 51.8 20.2 60.2 41.2zM38.7 274.8c26.8-7.3 55.9-4.1 75 11.1-21.9 9.2-56.4 4.3-75-11.1zM332.5 72.6c-24.6-9.9-39.7-41.3-35.5-61.5 14 5.1 37.1 45.2 35.5 61.5zM110 7.9c2.2 22.8-12.4 51.6-37.5 60.4C73.7 49.2 93.2 16.5 110 7.9zm196.2 262.2c7.7-20 37.4-37.2 59.1-37.4-7.2 20-37.9 38.5-59.1 37.4zm-213.4-3.7c-23.8.5-51.1-20.6-57-38.1 17.6-2.8 52.8 20.8 57 38.1zm254.8-152.6c-18.6-1.6-47.5-31.7-48.3-49.6 25.1 5.6 45.3 32.7 48.3 49.6zM106.4 60.6c-5.5 25.4-34.1 47.3-50.7 48.5 9.1-24.4 25.4-40.7 50.7-48.5zm289.3 40c3.2 19.3-11.9 47.6-32.9 57.8-4.9-15.9 16.1-52.8 32.9-57.8zM33.2 56.4c16.1 18.8 21.2 43.8 12.3 66.3C31.6 108 23.7 79.8 33.2 56.4zm308.9 114c6.8 16.4 6.2 43.4-13.4 65.8-8.1-15.7-3.7-49 13.4-65.8zm-.2 58.4c6-22.1 40.9-40.5 54.3-39.5-7.8 22.5-34.9 39.6-54.3 39.5zm30.5-166.9c8.4 21.9 1.4 47.2-14.5 65.2-8-12.9-3.5-48.1 14.5-65.2zM62.2 18.7C73 36.4 72.4 65.4 58.3 86c-8.8-10.9-11.2-49.6 3.9-67.3zM354.6 200c1-26 28.5-51.8 40.3-53.7 1.6 16.5-19.2 46.7-40.3 53.7zM40.3 153c-21.9-13.5-32.4-33.1-33-58.5 15.1 2.1 36.1 39.6 33 58.5zM8.1 139.9c19.5 6.9 39.9 36.3 38.6 55.1-20.4-9.7-35.8-26.9-38.6-55.1zm52.2 26.2c16.8 19.6 19.7 49.7 11.9 66.4-15.4-15.9-20.7-48.6-11.9-66.4zM344.2 23.2c14.2 21.9 12.7 44.1 2.5 66.6-12.7-10.9-14.2-51-2.5-66.6zM5 183.5c22.1 1.3 46.8 20.3 54 41.3-25-4.8-43.1-18-54-41.3zm69-75.1c3.6 17.4-6.6 46.4-25.9 58.5-5.6-14.7 5.6-48 25.9-58.5zm255.8 3.6c18.2 12.2 28.5 36.5 24.9 59.2-14.7-9.6-29.3-30.3-24.9-59.2z"/></g></svg>